<svg width="969" height="374" viewBox="0 0 969 374" fill="none" xmlns="http://www.w3.org/2000/svg">
<g id="LOGO">
<g id="Truck">
<g id="Load">
<path id="Vector" d="M330.848 163.902L304 139H390.196V254.676L416.808 279.578H330.848V163.902Z" fill="#0130B0"/>
<path id="Vector_2" d="M503.562 254.676V166.513L468 139H555.844L648.634 209.49V163.902L616.369 139H708.688L679.956 163.902V279.578H648.634L534.884 191.014V254.676L569.503 279.578H472.475L503.562 254.676Z" fill="#0130B0"/>
<path id="Vector_3" d="M792.264 254.676V163.902L760 139H968.895L966.54 187.6L920.616 161.492H852.79V193.825H922.029V215.515H852.79V257.085H920.616L967.717 233.187V279.578H760L792.264 254.676Z" fill="#0130B0"/>
</g>
<g id="Cab">
<path id="Vector_4" fill-rule="evenodd" clip-rule="evenodd" d="M138.132 119C190.603 119 233.174 159.105 233.138 208.5C233.103 257.898 190.473 298 138.003 298L138.132 119Z" fill="#0130B0"/>
<path id="Vector_5" fill-rule="evenodd" clip-rule="evenodd" d="M235 110.21H138.904V337H135V101H235V110.21Z" fill="#0130B0"/>
<path id="Vector_6" fill-rule="evenodd" clip-rule="evenodd" d="M135 213.995H19.6847V337H15L15 209H135V213.995Z" fill="#0130B0"/>
</g>
<g id="Smoke Stack">
<path id="Vector_7" d="M294 337V321H233V337H294Z" fill="#0130B0"/>
<path id="Vector_8" fill-rule="evenodd" clip-rule="evenodd" d="M233.074 5.16583L233 5.06538L283.333 0L294 14.9507L267.912 17.5783V337H233.03V5.16583H233.074Z" fill="#0130B0"/>
</g>
<g id="Under">
<path id="Vector_9" d="M801.699 343.78H457.031V346.567H801.699V343.78Z" fill="#0130B0"/>
<path id="Vector_10" d="M754.105 321.273L750 316.437H763.18V338.905L767.249 343.742H754.105V321.273Z" fill="#0130B0"/>
<path id="Vector_11" d="M668.754 338.905V320.22H665.225L658.599 328.256L658.203 316.437H668.682L668.754 316.515V316.437H688.631L688.271 328.256L681.429 320.22H678.044V338.905L684.274 343.742H662.74L668.754 338.905Z" fill="#0130B0"/>
<path id="Vector_12" d="M572.622 333.441C573.728 334.26 574.94 335.041 576.152 335.743C577.4 336.445 578.684 337.03 580.039 337.576C581.358 338.083 582.713 338.512 584.104 338.785C585.53 339.097 586.957 339.253 588.383 339.253C588.954 339.253 589.488 339.214 589.988 339.136C590.523 339.058 590.986 338.941 591.378 338.746C591.735 338.59 592.056 338.356 592.305 338.083C592.555 337.771 592.662 337.42 592.662 337.03C592.662 336.679 592.555 336.289 592.377 335.899C592.163 335.548 591.771 335.197 591.236 334.846C590.665 334.494 589.881 334.182 588.847 333.87C587.848 333.597 586.529 333.324 584.924 333.09C582.785 332.778 580.895 332.388 579.29 331.92C577.721 331.413 576.402 330.828 575.368 330.048C574.298 329.306 573.514 328.409 573.014 327.356C572.515 326.303 572.266 325.055 572.266 323.611C572.266 322.207 572.551 320.959 573.121 319.866C573.692 318.774 574.512 317.838 575.582 317.097C576.687 316.317 577.971 315.732 579.54 315.342C581.073 314.912 582.82 314.717 584.746 314.717C585.566 314.717 586.351 314.756 587.171 314.873C587.991 314.951 588.775 315.108 589.56 315.264C590.38 315.42 591.129 315.615 591.878 315.849C592.662 316.083 593.34 316.278 594.017 316.551L597.44 314.483H599.829V323.611C598.581 322.831 597.333 322.129 596.05 321.505C594.801 320.881 593.553 320.374 592.305 319.984C591.093 319.554 589.881 319.242 588.704 319.047C587.527 318.813 586.386 318.735 585.316 318.735C584.639 318.735 583.997 318.774 583.427 318.891C582.892 319.008 582.392 319.164 582 319.359C581.608 319.554 581.323 319.788 581.109 320.023C580.895 320.296 580.788 320.569 580.788 320.842C580.788 321.271 580.895 321.661 581.109 322.012C581.323 322.324 581.715 322.636 582.321 322.948C582.927 323.221 583.783 323.494 584.889 323.767C585.958 324.04 587.385 324.352 589.168 324.664C590.344 324.899 591.45 325.133 592.519 325.367C593.589 325.601 594.588 325.874 595.479 326.225C596.406 326.576 597.226 326.966 597.975 327.434C598.724 327.902 599.33 328.448 599.865 329.111C600.4 329.774 600.792 330.555 601.077 331.452C601.363 332.349 601.505 333.363 601.505 334.572C601.505 336.133 601.149 337.498 600.471 338.629C599.758 339.76 598.831 340.658 597.654 341.399C596.442 342.101 595.087 342.647 593.518 342.998C591.913 343.349 590.273 343.505 588.526 343.505C586.921 343.505 585.281 343.31 583.605 342.959C581.929 342.569 580.36 341.945 578.827 341.126L576.045 343.037H572.622V333.441Z" fill="#0130B0"/>
<path id="Vector_13" d="M498.246 321.273L494.141 316.437H507.32V338.905L511.389 343.742H498.246V321.273Z" fill="#0130B0"/>
</g>
<g id="Wheels">
<path id="Vector_14" fill-rule="evenodd" clip-rule="evenodd" d="M926.85 288.91C950.076 288.91 968.935 307.635 968.935 330.704C968.935 353.769 950.076 372.498 926.85 372.498C903.62 372.498 884.766 353.769 884.766 330.704C884.766 307.635 903.62 288.91 926.85 288.91ZM912.259 349.429L916.01 346.889C918.059 348.005 920.205 348.814 922.438 349.314C924.677 349.815 926.887 350.063 929.075 350.063C931.424 350.063 933.653 349.833 935.771 349.378C937.894 348.919 939.749 348.207 941.344 347.243C942.94 346.278 944.207 345.043 945.146 343.532C946.08 342.025 946.551 340.221 946.551 338.122C946.551 336.546 946.357 335.164 945.978 333.979C945.594 332.794 945.048 331.761 944.345 330.879C943.642 329.997 942.796 329.244 941.802 328.619C940.808 327.99 939.693 327.453 938.458 327.007C937.223 326.557 935.887 326.171 934.449 325.85C933.01 325.528 931.503 325.22 929.921 324.936C927.544 324.513 925.62 324.118 924.149 323.755C922.683 323.388 921.541 323.011 920.727 322.621C919.913 322.235 919.368 321.813 919.085 321.363C918.803 320.917 918.665 320.412 918.665 319.852C918.665 319.461 918.803 319.094 919.085 318.749C919.368 318.4 919.77 318.102 920.292 317.845C920.815 317.592 921.458 317.39 922.216 317.234C922.975 317.082 923.821 317.009 924.76 317.009C926.198 317.009 927.715 317.146 929.301 317.427C930.888 317.707 932.515 318.12 934.18 318.671C935.845 319.222 937.524 319.902 939.221 320.715C940.919 321.528 942.602 322.47 944.276 323.535V311.341H941.062L936.465 314.083C935.572 313.762 934.62 313.454 933.602 313.155C932.589 312.861 931.549 312.604 930.485 312.384C929.422 312.163 928.344 311.989 927.248 311.86C926.152 311.736 925.065 311.672 923.988 311.672C921.375 311.672 919.03 311.943 916.949 312.485C914.872 313.027 913.106 313.807 911.649 314.822C910.197 315.837 909.082 317.078 908.305 318.543C907.533 320.008 907.144 321.666 907.144 323.512C907.144 325.441 907.491 327.113 908.176 328.518C908.865 329.924 909.915 331.127 911.321 332.123C912.731 333.125 914.502 333.947 916.644 334.59C918.789 335.233 921.314 335.756 924.223 336.165C926.397 336.468 928.164 336.822 929.523 337.221C930.883 337.616 931.942 338.044 932.701 338.503C933.459 338.962 933.972 339.44 934.236 339.94C934.504 340.436 934.634 340.932 934.634 341.424C934.634 341.966 934.476 342.43 934.153 342.811C933.834 343.192 933.413 343.495 932.89 343.725C932.363 343.954 931.752 344.12 931.059 344.221C930.365 344.322 929.639 344.372 928.89 344.372C926.934 344.372 925.014 344.175 923.132 343.775C921.245 343.376 919.409 342.829 917.619 342.136C915.83 341.442 914.095 340.625 912.426 339.683C910.752 338.742 909.156 337.731 907.639 336.647V349.429H912.259Z" fill="#0130B0"/>
<path id="Vector_15" fill-rule="evenodd" clip-rule="evenodd" d="M842.866 288.91C866.096 288.91 884.951 307.626 884.951 330.683C884.951 353.735 866.096 372.451 842.866 372.451C819.641 372.451 800.781 353.735 800.781 330.683C800.781 307.626 819.641 288.91 842.866 288.91ZM821.088 330.669C821.088 328.389 821.394 326.328 822.004 324.475C822.614 322.627 823.456 320.984 824.538 319.544C825.616 318.11 826.892 316.87 828.358 315.835C829.829 314.799 831.429 313.94 833.159 313.267C834.884 312.589 836.701 312.088 838.611 311.763C840.517 311.438 842.45 311.275 844.401 311.275C845.844 311.275 847.204 311.368 848.485 311.559C849.766 311.744 850.968 312 852.088 312.315C853.202 312.631 854.233 312.998 855.168 313.406C856.106 313.82 856.953 314.247 857.702 314.693L859.413 312.25H864.315V325.302L858.1 326.583C857.725 325.195 857.17 323.904 856.435 322.706C855.699 321.508 854.816 320.468 853.785 319.595C852.754 318.723 851.583 318.035 850.279 317.529C848.975 317.023 847.555 316.773 846.02 316.773C844.05 316.773 842.362 317.153 840.956 317.915C839.55 318.676 838.394 319.698 837.497 320.97C836.6 322.247 835.938 323.723 835.513 325.404C835.092 327.08 834.879 328.835 834.879 330.669C834.879 332.911 835.18 334.899 835.786 336.626C836.387 338.358 837.229 339.806 838.306 340.981C839.384 342.156 840.665 343.038 842.14 343.641C843.62 344.24 845.238 344.537 847.01 344.537C848.383 344.537 849.683 344.347 850.899 343.962C852.12 343.576 853.198 342.987 854.127 342.188C855.057 341.394 855.815 340.387 856.402 339.17C856.985 337.954 857.341 336.514 857.466 334.857H864.644C864.644 336.482 864.408 337.986 863.931 339.374C863.455 340.763 862.78 342.021 861.915 343.154C861.046 344.282 860 345.28 858.784 346.144C857.563 347.007 856.204 347.732 854.701 348.317C853.198 348.897 851.584 349.338 849.859 349.635C848.129 349.937 846.321 350.086 844.429 350.086C842.644 350.086 840.826 349.956 838.972 349.686C837.122 349.422 835.332 348.99 833.603 348.391C831.873 347.792 830.254 346.998 828.738 346.014C827.221 345.03 825.893 343.818 824.76 342.378C823.627 340.944 822.73 339.254 822.073 337.322C821.417 335.386 821.088 333.167 821.088 330.669Z" fill="#0130B0"/>
<path id="3" fill-rule="evenodd" clip-rule="evenodd" d="M417.085 288.91C440.31 288.91 459.169 307.635 459.169 330.704C459.169 353.769 440.31 372.498 417.085 372.498C393.855 372.498 375 353.769 375 330.704C375 307.635 393.855 288.91 417.085 288.91ZM438.733 324.872V312.471H433.479L431.699 314.96C430.806 314.455 429.83 313.987 428.776 313.564C427.722 313.142 426.616 312.774 425.455 312.471C424.299 312.168 423.106 311.929 421.881 311.759C420.65 311.589 419.429 311.507 418.209 311.507C416.178 311.507 414.199 311.69 412.275 312.053C410.351 312.416 408.534 312.972 406.823 313.716C405.111 314.464 403.539 315.387 402.11 316.485C400.676 317.587 399.446 318.873 398.415 320.348C397.384 321.822 396.574 323.48 395.996 325.326C395.418 327.172 395.131 329.198 395.131 331.402C395.131 333.722 395.418 335.788 395.996 337.603C396.574 339.412 397.388 341.001 398.438 342.365C399.483 343.729 400.736 344.887 402.189 345.847C403.645 346.802 405.246 347.583 406.998 348.184C408.751 348.786 410.624 349.222 412.617 349.493C414.611 349.764 416.664 349.897 418.773 349.897C420.008 349.897 421.228 349.833 422.431 349.709C423.638 349.581 424.808 349.378 425.95 349.098C427.093 348.818 428.184 348.455 429.234 348.005C430.284 347.555 431.269 347.009 432.189 346.366L433.479 348.905H439.038V329.496H420.202L427.028 336.611V342.962C426.214 343.504 425.307 343.881 424.308 344.092C423.305 344.304 422.121 344.409 420.743 344.409C419.18 344.409 417.691 344.115 416.275 343.523C414.86 342.93 413.621 342.053 412.557 340.891C411.493 339.729 410.647 338.292 410.014 336.569C409.38 334.852 409.061 332.867 409.061 330.612C409.061 328.256 409.352 326.222 409.93 324.504C410.508 322.782 411.29 321.363 412.275 320.247C413.26 319.131 414.412 318.299 415.725 317.757C417.038 317.215 418.421 316.944 419.873 316.944C421.205 316.944 422.496 317.119 423.758 317.463C425.016 317.812 426.205 318.322 427.324 319.002C428.438 319.682 429.465 320.508 430.395 321.491C431.324 322.474 432.12 323.599 432.776 324.872H438.733Z" fill="#0130B0"/>
<path id="Vector_16" fill-rule="evenodd" clip-rule="evenodd" d="M333.361 288.91C356.735 288.91 375.706 307.644 375.706 330.713C375.706 339.34 373.058 347.352 368.519 354.015C360.908 365.171 348.001 372.517 333.361 372.517C309.992 372.517 291.016 353.789 291.016 330.713C291.016 307.644 309.992 288.91 333.361 288.91ZM312.171 330.702C312.171 328.319 312.493 326.174 313.137 324.277C313.775 322.374 314.644 320.697 315.734 319.246C316.829 317.795 318.111 316.559 319.584 315.525C321.058 314.498 322.622 313.662 324.276 313.013C325.931 312.369 327.636 311.889 329.397 311.59C331.153 311.285 332.87 311.139 334.552 311.139C336.387 311.139 338.222 311.285 340.051 311.59C341.881 311.889 343.625 312.369 345.28 313.013C346.934 313.662 348.475 314.498 349.898 315.525C351.321 316.559 352.563 317.795 353.619 319.246C354.669 320.697 355.493 322.374 356.086 324.277C356.679 326.174 356.978 328.319 356.978 330.702C356.978 333.051 356.668 335.168 356.052 337.048C355.431 338.934 354.584 340.6 353.511 342.051C352.433 343.502 351.168 344.744 349.723 345.783C348.272 346.821 346.719 347.674 345.065 348.352C343.411 349.023 341.683 349.515 339.882 349.825C338.086 350.136 336.308 350.294 334.552 350.294C332.791 350.294 331.018 350.147 329.228 349.853C327.438 349.56 325.716 349.091 324.062 348.453C322.408 347.815 320.855 346.985 319.404 345.963C317.958 344.947 316.699 343.71 315.627 342.259C314.56 340.808 313.718 339.126 313.097 337.218C312.482 335.309 312.171 333.135 312.171 330.702ZM326.14 330.702C326.14 332.74 326.348 334.626 326.761 336.365C327.173 338.098 327.749 339.606 328.494 340.887C329.239 342.164 330.126 343.168 331.153 343.891C332.181 344.619 333.316 344.981 334.552 344.981C335.789 344.981 336.918 344.608 337.951 343.869C338.979 343.123 339.871 342.113 340.622 340.837C341.372 339.555 341.96 338.047 342.377 336.309C342.801 334.575 343.01 332.706 343.01 330.702C343.01 328.681 342.812 326.784 342.417 325.011C342.016 323.244 341.452 321.702 340.718 320.398C339.978 319.094 339.092 318.066 338.041 317.315C336.997 316.564 335.834 316.192 334.552 316.192C333.316 316.192 332.181 316.564 331.153 317.315C330.126 318.066 329.239 319.094 328.494 320.398C327.749 321.702 327.173 323.244 326.761 325.011C326.348 326.784 326.14 328.681 326.14 330.702Z" fill="#0130B0"/>
<path id="Vector_17" fill-rule="evenodd" clip-rule="evenodd" d="M75.0658 285C99.3843 285 119.132 304.742 119.132 329.066C119.132 353.384 99.3843 373.132 75.0658 373.132C50.7473 373.132 31 353.384 31 329.066C31 304.742 50.7473 285 75.0658 285ZM75.0658 307.033C87.2251 307.033 97.0987 316.907 97.0987 329.066C97.0987 341.225 87.2251 351.099 75.0658 351.099C62.9066 351.099 53.0329 341.225 53.0329 329.066C53.0329 316.907 62.9066 307.033 75.0658 307.033Z" fill="#0130B0"/>
</g>
</g>
</g>
</svg>
