<svg width="341" height="146" viewBox="0 0 341 146" fill="none" xmlns="http://www.w3.org/2000/svg">
<g id="Truck" filter="url(#filter0_d)">
<g id="Load">
<path id="Vector" d="M112.016 60.9971L103.007 52.6412H131.93V91.4559L140.859 99.8119H112.016V60.9971Z" fill="#D90000"/>
<path id="Vector_2" d="M169.969 91.4559V61.8732L158.037 52.6412H187.513L218.648 76.2939V60.9971L207.822 52.6412H238.799L229.158 60.9971V99.8119H218.648L180.479 70.0943V91.4559L192.096 99.8119H159.538L169.969 91.4559Z" fill="#D90000"/>
<path id="Vector_3" d="M266.843 91.4559V60.9971L256.017 52.6412H326.111L325.321 68.9488L309.911 60.1885H287.152V71.0378H310.385V78.3155H287.152V92.2646H309.911L325.716 84.2455V99.8119H256.017L266.843 91.4559Z" fill="#D90000"/>
</g>
<g id="Cab">
<path id="Vector_4" fill-rule="evenodd" clip-rule="evenodd" d="M47.3491 45.9302C64.9555 45.9302 79.2403 59.3875 79.2283 75.9618C79.2162 92.5371 64.912 105.993 47.3056 105.993L47.3491 45.9302Z" fill="#D90000"/>
<path id="Vector_5" fill-rule="evenodd" clip-rule="evenodd" d="M79.8537 42.9807H47.6088V119.08H46.2988V39.8904H79.8537V42.9807Z" fill="#D90000"/>
<path id="Vector_6" fill-rule="evenodd" clip-rule="evenodd" d="M46.299 77.8057H7.60514V119.08H6.0332V76.1296H46.299V77.8057Z" fill="#D90000"/>
</g>
<g id="Smoke Stack">
<path id="Vector_7" d="M99.6509 119.08V113.711H79.1824V119.08H99.6509Z" fill="#D90000"/>
<path id="Vector_8" fill-rule="evenodd" clip-rule="evenodd" d="M79.2075 7.73338L79.1826 7.69968L96.0718 6L99.6511 11.0167L90.8974 11.8984V119.08H79.1925V7.73338H79.2075Z" fill="#D90000"/>
</g>
<g id="Under">
<path id="Vector_9" d="M270.009 121.355H154.356V122.29H270.009V121.355Z" fill="#D90000"/>
<path id="Vector_10" d="M254.039 113.803L252.661 112.18H257.084V119.719L258.449 121.342H254.039V113.803Z" fill="#D90000"/>
<path id="Vector_11" d="M225.399 119.719V113.449H224.215L221.992 116.146L221.859 112.18H225.375L225.399 112.206V112.18H232.069L231.948 116.146L229.652 113.449H228.517V119.719L230.607 121.342H223.381L225.399 119.719Z" fill="#D90000"/>
<path id="Vector_12" d="M193.142 117.886C193.513 118.16 193.92 118.422 194.327 118.658C194.745 118.893 195.176 119.09 195.631 119.273C196.074 119.443 196.528 119.587 196.995 119.679C197.473 119.784 197.952 119.836 198.431 119.836C198.622 119.836 198.802 119.823 198.969 119.797C199.149 119.77 199.304 119.731 199.436 119.666C199.555 119.613 199.663 119.535 199.747 119.443C199.831 119.339 199.866 119.221 199.866 119.09C199.866 118.972 199.831 118.841 199.771 118.71C199.699 118.592 199.567 118.475 199.388 118.357C199.196 118.239 198.933 118.134 198.586 118.03C198.251 117.938 197.808 117.846 197.27 117.768C196.552 117.663 195.918 117.532 195.38 117.375C194.853 117.205 194.41 117.009 194.063 116.747C193.704 116.498 193.441 116.197 193.274 115.844C193.106 115.49 193.022 115.071 193.022 114.587C193.022 114.116 193.118 113.697 193.31 113.331C193.501 112.964 193.776 112.65 194.135 112.401C194.506 112.14 194.937 111.943 195.463 111.812C195.978 111.668 196.564 111.603 197.21 111.603C197.485 111.603 197.749 111.616 198.024 111.655C198.299 111.681 198.562 111.734 198.825 111.786C199.101 111.838 199.352 111.904 199.603 111.982C199.866 112.061 200.094 112.126 200.321 112.218L201.47 111.524H202.271V114.587C201.853 114.325 201.434 114.09 201.003 113.88C200.584 113.671 200.166 113.501 199.747 113.37C199.34 113.226 198.933 113.121 198.538 113.056C198.143 112.977 197.761 112.951 197.402 112.951C197.174 112.951 196.959 112.964 196.767 113.003C196.588 113.043 196.421 113.095 196.289 113.16C196.157 113.226 196.062 113.304 195.99 113.383C195.918 113.475 195.882 113.566 195.882 113.658C195.882 113.802 195.918 113.933 195.99 114.051C196.062 114.155 196.193 114.26 196.397 114.365C196.6 114.456 196.887 114.548 197.258 114.64C197.617 114.731 198.096 114.836 198.694 114.941C199.089 115.019 199.46 115.098 199.819 115.176C200.178 115.255 200.513 115.346 200.812 115.464C201.123 115.582 201.398 115.713 201.649 115.87C201.9 116.027 202.104 116.21 202.283 116.433C202.463 116.655 202.594 116.917 202.69 117.218C202.786 117.519 202.834 117.859 202.834 118.265C202.834 118.789 202.714 119.247 202.487 119.626C202.247 120.006 201.936 120.307 201.542 120.556C201.135 120.791 200.68 120.975 200.154 121.092C199.615 121.21 199.065 121.263 198.478 121.263C197.94 121.263 197.39 121.197 196.827 121.079C196.265 120.948 195.739 120.739 195.224 120.464L194.291 121.106H193.142V117.886Z" fill="#D90000"/>
<path id="Vector_13" d="M168.186 113.803L166.808 112.18H171.23V119.719L172.596 121.342H168.186V113.803Z" fill="#D90000"/>
</g>
<g id="Wheels">
<path id="Vector_14" fill-rule="evenodd" clip-rule="evenodd" d="M312.003 102.943C319.796 102.943 326.124 109.226 326.124 116.967C326.124 124.706 319.796 130.991 312.003 130.991C304.208 130.991 297.881 124.706 297.881 116.967C297.881 109.226 304.208 102.943 312.003 102.943ZM307.107 123.25L308.365 122.398C309.053 122.772 309.773 123.044 310.522 123.212C311.273 123.38 312.015 123.463 312.749 123.463C313.538 123.463 314.285 123.386 314.996 123.233C315.708 123.079 316.331 122.84 316.866 122.517C317.402 122.193 317.827 121.778 318.142 121.271C318.455 120.766 318.613 120.16 318.613 119.456C318.613 118.927 318.548 118.463 318.421 118.066C318.292 117.668 318.109 117.322 317.873 117.026C317.637 116.73 317.353 116.477 317.02 116.267C316.686 116.056 316.312 115.876 315.898 115.726C315.483 115.575 315.035 115.446 314.552 115.338C314.07 115.23 313.564 115.127 313.033 115.031C312.236 114.89 311.59 114.757 311.097 114.635C310.605 114.512 310.221 114.386 309.948 114.255C309.675 114.125 309.492 113.983 309.397 113.832C309.303 113.683 309.256 113.513 309.256 113.325C309.256 113.194 309.303 113.071 309.397 112.956C309.492 112.838 309.627 112.738 309.802 112.652C309.978 112.567 310.193 112.499 310.448 112.447C310.702 112.396 310.986 112.372 311.301 112.372C311.784 112.372 312.293 112.418 312.825 112.512C313.357 112.606 313.904 112.744 314.462 112.929C315.021 113.114 315.584 113.342 316.154 113.615C316.723 113.888 317.288 114.204 317.85 114.561V110.47H316.771L315.229 111.39C314.929 111.282 314.61 111.179 314.268 111.079C313.929 110.98 313.579 110.894 313.222 110.82C312.866 110.746 312.504 110.687 312.136 110.644C311.768 110.602 311.404 110.581 311.042 110.581C310.165 110.581 309.379 110.672 308.68 110.854C307.984 111.035 307.391 111.297 306.902 111.638C306.415 111.979 306.041 112.395 305.78 112.886C305.521 113.378 305.391 113.934 305.391 114.554C305.391 115.201 305.507 115.762 305.737 116.234C305.968 116.705 306.32 117.109 306.792 117.443C307.265 117.779 307.859 118.055 308.578 118.271C309.298 118.487 310.145 118.662 311.121 118.799C311.851 118.901 312.443 119.02 312.9 119.154C313.356 119.286 313.711 119.43 313.966 119.584C314.22 119.738 314.393 119.898 314.481 120.066C314.571 120.233 314.614 120.399 314.614 120.564C314.614 120.746 314.562 120.901 314.453 121.029C314.346 121.157 314.205 121.259 314.029 121.336C313.853 121.413 313.648 121.469 313.415 121.502C313.182 121.536 312.939 121.553 312.687 121.553C312.031 121.553 311.387 121.487 310.755 121.353C310.122 121.219 309.506 121.036 308.905 120.803C308.305 120.57 307.723 120.296 307.163 119.98C306.601 119.664 306.066 119.325 305.557 118.961V123.25H307.107Z" fill="#D90000"/>
<path id="Vector_15" fill-rule="evenodd" clip-rule="evenodd" d="M283.822 102.943C291.617 102.943 297.944 109.223 297.944 116.96C297.944 124.695 291.617 130.975 283.822 130.975C276.029 130.975 269.701 124.695 269.701 116.96C269.701 109.223 276.029 102.943 283.822 102.943ZM276.515 116.955C276.515 116.19 276.617 115.499 276.822 114.877C277.027 114.257 277.309 113.705 277.672 113.222C278.034 112.741 278.462 112.325 278.954 111.978C279.448 111.63 279.985 111.342 280.565 111.116C281.144 110.889 281.754 110.72 282.394 110.611C283.034 110.502 283.682 110.448 284.337 110.448C284.822 110.448 285.278 110.479 285.708 110.543C286.137 110.605 286.541 110.691 286.916 110.797C287.29 110.903 287.636 111.026 287.95 111.163C288.265 111.301 288.549 111.445 288.8 111.594L289.374 110.775H291.019V115.154L288.934 115.584C288.808 115.118 288.622 114.685 288.375 114.283C288.128 113.881 287.832 113.532 287.486 113.239C287.14 112.947 286.747 112.716 286.31 112.546C285.872 112.376 285.396 112.292 284.88 112.292C284.219 112.292 283.653 112.42 283.181 112.676C282.71 112.931 282.322 113.274 282.021 113.701C281.719 114.129 281.498 114.625 281.355 115.188C281.214 115.751 281.142 116.34 281.142 116.955C281.142 117.708 281.243 118.374 281.446 118.954C281.648 119.535 281.93 120.021 282.292 120.415C282.654 120.81 283.083 121.106 283.579 121.308C284.075 121.509 284.618 121.609 285.213 121.609C285.673 121.609 286.11 121.545 286.518 121.416C286.927 121.286 287.289 121.088 287.601 120.82C287.913 120.554 288.167 120.216 288.364 119.808C288.56 119.4 288.679 118.917 288.721 118.36H291.13C291.13 118.906 291.05 119.41 290.891 119.876C290.731 120.342 290.504 120.764 290.214 121.144C289.922 121.523 289.572 121.858 289.163 122.148C288.754 122.438 288.298 122.681 287.793 122.877C287.289 123.072 286.747 123.22 286.168 123.319C285.588 123.421 284.981 123.47 284.347 123.47C283.748 123.47 283.138 123.427 282.516 123.336C281.895 123.248 281.294 123.103 280.714 122.902C280.134 122.701 279.59 122.434 279.081 122.104C278.572 121.774 278.127 121.367 277.747 120.884C277.367 120.403 277.066 119.836 276.845 119.188C276.625 118.538 276.515 117.793 276.515 116.955Z" fill="#D90000"/>
<path id="3" fill-rule="evenodd" clip-rule="evenodd" d="M140.952 102.943C148.745 102.943 155.073 109.226 155.073 116.967C155.073 124.706 148.745 130.991 140.952 130.991C133.157 130.991 126.831 124.706 126.831 116.967C126.831 109.226 133.157 102.943 140.952 102.943ZM148.216 115.01V110.849H146.453L145.856 111.684C145.556 111.515 145.229 111.357 144.875 111.216C144.521 111.074 144.15 110.951 143.761 110.849C143.373 110.747 142.972 110.667 142.561 110.61C142.148 110.553 141.739 110.525 141.329 110.525C140.648 110.525 139.984 110.587 139.338 110.709C138.693 110.83 138.083 111.017 137.509 111.267C136.934 111.518 136.407 111.828 135.927 112.196C135.446 112.566 135.033 112.997 134.687 113.492C134.341 113.987 134.07 114.543 133.876 115.162C133.682 115.782 133.586 116.462 133.586 117.201C133.586 117.98 133.682 118.673 133.876 119.282C134.07 119.889 134.343 120.422 134.695 120.88C135.046 121.338 135.466 121.726 135.954 122.048C136.442 122.369 136.979 122.631 137.568 122.832C138.156 123.034 138.784 123.181 139.453 123.272C140.122 123.363 140.811 123.407 141.518 123.407C141.933 123.407 142.342 123.386 142.746 123.344C143.151 123.301 143.544 123.233 143.927 123.139C144.31 123.045 144.676 122.923 145.029 122.772C145.381 122.621 145.711 122.438 146.02 122.222L146.453 123.074H148.318V116.562H141.998L144.288 118.949V121.08C144.015 121.262 143.711 121.388 143.376 121.459C143.039 121.53 142.642 121.566 142.18 121.566C141.655 121.566 141.155 121.467 140.68 121.268C140.206 121.069 139.79 120.775 139.433 120.385C139.076 119.995 138.792 119.513 138.579 118.935C138.367 118.359 138.26 117.693 138.26 116.936C138.26 116.146 138.357 115.463 138.551 114.887C138.745 114.309 139.008 113.832 139.338 113.458C139.669 113.084 140.055 112.805 140.496 112.623C140.937 112.441 141.401 112.35 141.888 112.35C142.335 112.35 142.768 112.408 143.191 112.524C143.613 112.641 144.012 112.812 144.388 113.04C144.762 113.268 145.106 113.546 145.418 113.876C145.73 114.205 145.997 114.583 146.217 115.01H148.216Z" fill="#D90000"/>
<path id="Vector_16" fill-rule="evenodd" clip-rule="evenodd" d="M112.858 102.943C120.702 102.943 127.067 109.229 127.067 116.97C127.067 119.865 126.179 122.553 124.655 124.789C122.102 128.532 117.771 130.997 112.858 130.997C105.017 130.997 98.6494 124.713 98.6494 116.97C98.6494 109.229 105.017 102.943 112.858 102.943ZM105.748 116.966C105.748 116.167 105.856 115.447 106.072 114.81C106.286 114.172 106.578 113.609 106.944 113.122C107.311 112.635 107.741 112.221 108.236 111.874C108.73 111.529 109.255 111.249 109.81 111.031C110.365 110.815 110.937 110.654 111.528 110.553C112.118 110.451 112.693 110.402 113.258 110.402C113.874 110.402 114.489 110.451 115.103 110.553C115.717 110.654 116.302 110.815 116.858 111.031C117.413 111.249 117.93 111.529 118.407 111.874C118.885 112.221 119.302 112.635 119.656 113.122C120.008 113.609 120.285 114.172 120.484 114.81C120.683 115.447 120.783 116.167 120.783 116.966C120.783 117.754 120.679 118.465 120.472 119.096C120.264 119.729 119.98 120.287 119.62 120.774C119.258 121.261 118.834 121.678 118.349 122.027C117.862 122.375 117.341 122.661 116.786 122.889C116.23 123.114 115.651 123.279 115.046 123.383C114.444 123.487 113.847 123.54 113.258 123.54C112.667 123.54 112.072 123.491 111.471 123.392C110.871 123.294 110.293 123.137 109.738 122.923C109.183 122.709 108.662 122.43 108.175 122.087C107.69 121.746 107.268 121.331 106.908 120.844C106.55 120.357 106.267 119.793 106.059 119.153C105.852 118.512 105.748 117.783 105.748 116.966ZM110.435 116.966C110.435 117.65 110.505 118.283 110.644 118.867C110.782 119.448 110.975 119.954 111.225 120.384C111.475 120.812 111.773 121.149 112.117 121.392C112.462 121.636 112.843 121.758 113.258 121.758C113.673 121.758 114.052 121.633 114.399 121.384C114.743 121.134 115.043 120.795 115.295 120.367C115.547 119.937 115.744 119.431 115.884 118.848C116.026 118.266 116.096 117.639 116.096 116.966C116.096 116.288 116.03 115.652 115.897 115.057C115.763 114.464 115.573 113.946 115.327 113.509C115.079 113.071 114.781 112.726 114.429 112.474C114.078 112.222 113.688 112.097 113.258 112.097C112.843 112.097 112.462 112.222 112.117 112.474C111.773 112.726 111.475 113.071 111.225 113.509C110.975 113.946 110.782 114.464 110.644 115.057C110.505 115.652 110.435 116.288 110.435 116.966Z" fill="#D90000"/>
<path id="Vector_17" fill-rule="evenodd" clip-rule="evenodd" d="M26.1881 101.631C34.3481 101.631 40.9743 108.256 40.9743 116.417C40.9743 124.577 34.3481 131.204 26.1881 131.204C18.028 131.204 11.4019 124.577 11.4019 116.417C11.4019 108.256 18.028 101.631 26.1881 101.631ZM26.1881 109.024C30.2681 109.024 33.5812 112.337 33.5812 116.417C33.5812 120.497 30.2681 123.811 26.1881 123.811C22.108 123.811 18.795 120.497 18.795 116.417C18.795 112.337 22.108 109.024 26.1881 109.024Z" fill="#D90000"/>
</g>
</g>
<defs>
<filter id="filter0_d" x="-5" y="0" width="345.124" height="145.204" filterUnits="userSpaceOnUse" color-interpolation-filters="sRGB">
<feFlood flood-opacity="0" result="BackgroundImageFix"/>
<feColorMatrix in="SourceAlpha" type="matrix" values="0 0 0 0 0 0 0 0 0 0 0 0 0 0 0 0 0 0 127 0"/>
<feOffset dx="4" dy="4"/>
<feGaussianBlur stdDeviation="5"/>
<feColorMatrix type="matrix" values="0 0 0 0 0 0 0 0 0 0 0 0 0 0 0 0 0 0 0.45 0"/>
<feBlend mode="normal" in2="BackgroundImageFix" result="effect1_dropShadow"/>
<feBlend mode="normal" in="SourceGraphic" in2="effect1_dropShadow" result="shape"/>
</filter>
</defs>
</svg>
