<svg width="983" height="394" viewBox="0 0 983 394" fill="none" xmlns="http://www.w3.org/2000/svg">
<g id="Truck" filter="url(#filter0_d)">
<g id="Load">
<path id="Vector" d="M330.848 169.902L304 145H390.196V260.676L416.808 285.578H330.848V169.902Z" fill="#0130B0"/>
<path id="Vector_2" d="M503.562 260.676V172.513L468 145H555.844L648.634 215.49V169.902L616.369 145H708.688L679.956 169.902V285.578H648.634L534.884 197.014V260.676L569.503 285.578H472.475L503.562 260.676Z" fill="#0130B0"/>
<path id="Vector_3" d="M792.264 260.676V169.902L760 145H968.895L966.54 193.6L920.616 167.492H852.79V199.825H922.029V221.515H852.79V263.085H920.616L967.717 239.187V285.578H760L792.264 260.676Z" fill="#0130B0"/>
</g>
<g id="Cab">
<path id="Vector_4" fill-rule="evenodd" clip-rule="evenodd" d="M138.13 125C190.601 125 233.172 165.105 233.136 214.5C233.101 263.898 190.471 304 138.001 304L138.13 125Z" fill="#0130B0"/>
<path id="Vector_5" fill-rule="evenodd" clip-rule="evenodd" d="M235 116.21H138.904V343H135V107H235V116.21Z" fill="#0130B0"/>
<path id="Vector_6" fill-rule="evenodd" clip-rule="evenodd" d="M135 219.995H19.6847V343H15L15 215H135V219.995Z" fill="#0130B0"/>
</g>
<g id="Smoke Stack">
<path id="Vector_7" d="M294 343V327H233V343H294Z" fill="#0130B0"/>
<path id="Vector_8" fill-rule="evenodd" clip-rule="evenodd" d="M233.074 11.1658L233 11.0654L283.333 6L294 20.9507L267.912 23.5783V343H233.03V11.1658H233.074Z" fill="#0130B0"/>
</g>
<g id="Under">
<path id="Vector_9" d="M801.699 349.78H457.031V352.567H801.699V349.78Z" fill="#0130B0"/>
<path id="Vector_10" d="M754.105 327.273L750 322.437H763.18V344.905L767.249 349.742H754.105V327.273Z" fill="#0130B0"/>
<path id="Vector_11" d="M668.754 344.905V326.22H665.225L658.599 334.256L658.203 322.437H668.682L668.754 322.515V322.437H688.631L688.271 334.256L681.429 326.22H678.044V344.905L684.274 349.742H662.74L668.754 344.905Z" fill="#0130B0"/>
<path id="Vector_12" d="M572.622 339.441C573.728 340.26 574.94 341.041 576.152 341.743C577.4 342.445 578.684 343.03 580.039 343.576C581.358 344.083 582.713 344.512 584.104 344.785C585.53 345.097 586.957 345.253 588.383 345.253C588.954 345.253 589.488 345.214 589.988 345.136C590.523 345.058 590.986 344.941 591.378 344.746C591.735 344.59 592.056 344.356 592.305 344.083C592.555 343.771 592.662 343.42 592.662 343.03C592.662 342.679 592.555 342.289 592.377 341.899C592.163 341.548 591.771 341.197 591.236 340.846C590.665 340.494 589.881 340.182 588.847 339.87C587.848 339.597 586.529 339.324 584.924 339.09C582.785 338.778 580.895 338.388 579.29 337.92C577.721 337.413 576.402 336.828 575.368 336.048C574.298 335.306 573.514 334.409 573.014 333.356C572.515 332.303 572.266 331.055 572.266 329.611C572.266 328.207 572.551 326.959 573.121 325.866C573.692 324.774 574.512 323.838 575.582 323.097C576.687 322.317 577.971 321.732 579.54 321.342C581.073 320.912 582.82 320.717 584.746 320.717C585.566 320.717 586.351 320.756 587.171 320.873C587.991 320.951 588.775 321.108 589.56 321.264C590.38 321.42 591.129 321.615 591.878 321.849C592.662 322.083 593.34 322.278 594.017 322.551L597.44 320.483H599.829V329.611C598.581 328.831 597.333 328.129 596.05 327.505C594.801 326.881 593.553 326.374 592.305 325.984C591.093 325.554 589.881 325.242 588.704 325.047C587.527 324.813 586.386 324.735 585.316 324.735C584.639 324.735 583.997 324.774 583.427 324.891C582.892 325.008 582.392 325.164 582 325.359C581.608 325.554 581.323 325.788 581.109 326.023C580.895 326.296 580.788 326.569 580.788 326.842C580.788 327.271 580.895 327.661 581.109 328.012C581.323 328.324 581.715 328.636 582.321 328.948C582.927 329.221 583.783 329.494 584.889 329.767C585.958 330.04 587.385 330.352 589.168 330.664C590.344 330.899 591.45 331.133 592.519 331.367C593.589 331.601 594.588 331.874 595.479 332.225C596.406 332.576 597.226 332.966 597.975 333.434C598.724 333.902 599.33 334.448 599.865 335.111C600.4 335.774 600.792 336.555 601.077 337.452C601.363 338.349 601.505 339.363 601.505 340.572C601.505 342.133 601.149 343.498 600.471 344.629C599.758 345.76 598.831 346.658 597.654 347.399C596.442 348.101 595.087 348.647 593.518 348.998C591.913 349.349 590.273 349.505 588.526 349.505C586.921 349.505 585.281 349.31 583.605 348.959C581.929 348.569 580.36 347.945 578.827 347.126L576.045 349.037H572.622V339.441Z" fill="#0130B0"/>
<path id="Vector_13" d="M498.246 327.273L494.141 322.437H507.32V344.905L511.389 349.742H498.246V327.273Z" fill="#0130B0"/>
</g>
<g id="Wheels">
<path id="Vector_14" fill-rule="evenodd" clip-rule="evenodd" d="M926.85 294.91C950.076 294.91 968.935 313.634 968.935 336.704C968.935 359.769 950.076 378.498 926.85 378.498C903.62 378.498 884.766 359.769 884.766 336.704C884.766 313.634 903.62 294.91 926.85 294.91ZM912.259 355.428L916.01 352.889C918.059 354.005 920.205 354.813 922.438 355.314C924.677 355.814 926.887 356.062 929.075 356.062C931.424 356.062 933.653 355.833 935.771 355.378C937.894 354.919 939.749 354.207 941.344 353.242C942.94 352.278 944.207 351.042 945.146 349.531C946.08 348.025 946.551 346.22 946.551 344.121C946.551 342.546 946.357 341.163 945.978 339.978C945.594 338.794 945.048 337.76 944.345 336.878C943.642 335.997 942.796 335.243 941.802 334.619C940.808 333.989 939.693 333.452 938.458 333.007C937.223 332.557 935.887 332.171 934.449 331.849C933.01 331.528 931.503 331.22 929.921 330.935C927.544 330.513 925.62 330.118 924.149 329.755C922.683 329.388 921.541 329.011 920.727 328.621C919.913 328.235 919.368 327.812 919.085 327.362C918.803 326.917 918.665 326.411 918.665 325.851C918.665 325.461 918.803 325.093 919.085 324.749C919.368 324.4 919.77 324.101 920.292 323.844C920.815 323.591 921.458 323.389 922.216 323.233C922.975 323.082 923.821 323.008 924.76 323.008C926.198 323.008 927.715 323.146 929.301 323.426C930.888 323.706 932.515 324.12 934.18 324.671C935.845 325.222 937.524 325.902 939.221 326.715C940.919 327.527 942.602 328.469 944.276 329.535V317.341H941.062L936.465 320.083C935.572 319.761 934.62 319.453 933.602 319.155C932.589 318.861 931.549 318.604 930.485 318.383C929.422 318.163 928.344 317.988 927.248 317.86C926.152 317.736 925.065 317.671 923.988 317.671C921.375 317.671 919.03 317.942 916.949 318.484C914.872 319.026 913.106 319.807 911.649 320.822C910.197 321.837 909.082 323.077 908.305 324.542C907.533 326.007 907.144 327.665 907.144 329.512C907.144 331.441 907.491 333.112 908.176 334.518C908.865 335.923 909.915 337.126 911.321 338.123C912.731 339.124 914.502 339.946 916.644 340.589C918.789 341.232 921.314 341.756 924.223 342.165C926.397 342.468 928.164 342.821 929.523 343.221C930.883 343.616 931.942 344.043 932.701 344.502C933.459 344.962 933.972 345.439 934.236 345.94C934.504 346.436 934.634 346.932 934.634 347.423C934.634 347.965 934.476 348.429 934.153 348.81C933.834 349.192 933.413 349.495 932.89 349.724C932.363 349.954 931.752 350.119 931.059 350.22C930.365 350.321 929.639 350.372 928.89 350.372C926.934 350.372 925.014 350.174 923.132 349.775C921.245 349.375 919.409 348.829 917.619 348.135C915.83 347.442 914.095 346.624 912.426 345.683C910.752 344.741 909.156 343.731 907.639 342.647V355.428H912.259Z" fill="#0130B0"/>
<path id="Vector_15" fill-rule="evenodd" clip-rule="evenodd" d="M842.866 294.91C866.096 294.91 884.951 313.625 884.951 336.682C884.951 359.735 866.096 378.45 842.866 378.45C819.641 378.45 800.781 359.735 800.781 336.682C800.781 313.625 819.641 294.91 842.866 294.91ZM821.088 336.668C821.088 334.389 821.394 332.327 822.004 330.475C822.614 328.627 823.456 326.983 824.538 325.544C825.616 324.109 826.892 322.87 828.358 321.834C829.829 320.799 831.429 319.94 833.159 319.267C834.884 318.589 836.701 318.087 838.611 317.762C840.517 317.437 842.45 317.275 844.401 317.275C845.844 317.275 847.204 317.368 848.485 317.558C849.766 317.744 850.968 317.999 852.088 318.315C853.202 318.63 854.233 318.997 855.168 319.406C856.106 319.819 856.953 320.246 857.702 320.692L859.413 318.25H864.315V331.301L858.1 332.583C857.725 331.194 857.17 329.904 856.435 328.706C855.699 327.508 854.816 326.468 853.785 325.595C852.754 324.722 851.583 324.035 850.279 323.529C848.975 323.023 847.555 322.772 846.02 322.772C844.05 322.772 842.362 323.153 840.956 323.914C839.55 324.676 838.394 325.697 837.497 326.969C836.6 328.246 835.938 329.722 835.513 331.403C835.092 333.079 834.879 334.834 834.879 336.668C834.879 338.911 835.18 340.898 835.786 342.625C836.387 344.357 837.229 345.806 838.306 346.98C839.384 348.155 840.665 349.037 842.14 349.641C843.62 350.24 845.239 350.537 847.01 350.537C848.383 350.537 849.683 350.347 850.899 349.961C852.12 349.576 853.198 348.986 854.127 348.188C855.057 347.394 855.815 346.386 856.402 345.17C856.985 343.953 857.341 342.514 857.466 340.856H864.644C864.644 342.481 864.408 343.986 863.931 345.374C863.455 346.762 862.78 348.02 861.915 349.153C861.046 350.282 860 351.28 858.784 352.143C857.563 353.007 856.204 353.731 854.701 354.316C853.198 354.897 851.584 355.338 849.859 355.635C848.129 355.937 846.321 356.085 844.429 356.085C842.644 356.085 840.826 355.955 838.972 355.686C837.122 355.421 835.332 354.989 833.603 354.391C831.873 353.792 830.254 352.998 828.738 352.013C827.221 351.029 825.893 349.817 824.76 348.378C823.627 346.943 822.73 345.253 822.073 343.322C821.417 341.386 821.088 339.166 821.088 336.668Z" fill="#0130B0"/>
<path id="3" fill-rule="evenodd" clip-rule="evenodd" d="M417.085 294.91C440.31 294.91 459.169 313.634 459.169 336.704C459.169 359.769 440.31 378.498 417.085 378.498C393.855 378.498 375 359.769 375 336.704C375 313.634 393.855 294.91 417.085 294.91ZM438.733 330.871V318.471H433.479L431.699 320.96C430.806 320.455 429.83 319.986 428.776 319.564C427.722 319.141 426.616 318.774 425.455 318.471C424.299 318.167 423.106 317.929 421.881 317.759C420.65 317.589 419.429 317.506 418.209 317.506C416.178 317.506 414.199 317.69 412.275 318.053C410.351 318.415 408.534 318.971 406.823 319.715C405.111 320.464 403.539 321.387 402.11 322.485C400.676 323.587 399.446 324.873 398.415 326.347C397.384 327.821 396.574 329.479 395.996 331.326C395.418 333.172 395.131 335.197 395.131 337.402C395.131 339.721 395.418 341.788 395.996 343.602C396.574 345.412 397.388 347.001 398.438 348.365C399.483 349.729 400.736 350.886 402.189 351.846C403.645 352.801 405.246 353.582 406.998 354.184C408.751 354.786 410.624 355.222 412.617 355.493C414.611 355.764 416.664 355.897 418.773 355.897C420.008 355.897 421.228 355.833 422.431 355.709C423.638 355.58 424.808 355.378 425.95 355.098C427.093 354.818 428.184 354.455 429.234 354.005C430.284 353.555 431.269 353.008 432.189 352.365L433.479 354.905H439.038V335.496H420.202L427.028 342.61V348.962C426.214 349.504 425.307 349.88 424.308 350.092C423.305 350.303 422.121 350.409 420.743 350.409C419.18 350.409 417.691 350.115 416.275 349.522C414.86 348.93 413.621 348.052 412.557 346.891C411.493 345.729 410.647 344.291 410.014 342.569C409.38 340.851 409.061 338.867 409.061 336.612C409.061 334.256 409.352 332.221 409.93 330.504C410.508 328.781 411.29 327.362 412.275 326.246C413.26 325.13 414.412 324.299 415.725 323.757C417.038 323.215 418.421 322.944 419.873 322.944C421.205 322.944 422.496 323.118 423.758 323.463C425.016 323.812 426.205 324.322 427.324 325.001C428.438 325.681 429.465 326.508 430.395 327.491C431.324 328.474 432.12 329.599 432.776 330.871H438.733Z" fill="#0130B0"/>
<path id="Vector_16" fill-rule="evenodd" clip-rule="evenodd" d="M333.361 294.91C356.735 294.91 375.706 313.643 375.706 336.713C375.706 345.34 373.058 353.352 368.519 360.014C360.908 371.171 348.001 378.516 333.361 378.516C309.992 378.516 291.016 359.788 291.016 336.713C291.016 313.643 309.992 294.91 333.361 294.91ZM312.171 336.702C312.171 334.319 312.493 332.173 313.137 330.276C313.775 328.374 314.644 326.697 315.734 325.246C316.829 323.795 318.111 322.558 319.584 321.525C321.058 320.497 322.622 319.662 324.276 319.013C325.931 318.369 327.636 317.889 329.397 317.59C331.153 317.285 332.87 317.138 334.552 317.138C336.387 317.138 338.222 317.285 340.051 317.59C341.881 317.889 343.625 318.369 345.28 319.013C346.934 319.662 348.475 320.497 349.898 321.525C351.321 322.558 352.563 323.795 353.619 325.246C354.669 326.697 355.493 328.374 356.086 330.276C356.679 332.173 356.978 334.319 356.978 336.702C356.978 339.05 356.668 341.168 356.052 343.048C355.431 344.933 354.584 346.599 353.511 348.05C352.433 349.501 351.168 350.743 349.723 351.782C348.272 352.821 346.719 353.674 345.065 354.351C343.411 355.023 341.683 355.514 339.882 355.825C338.086 356.135 336.308 356.293 334.552 356.293C332.791 356.293 331.018 356.146 329.228 355.853C327.438 355.559 325.716 355.091 324.062 354.453C322.408 353.815 320.855 352.985 319.404 351.963C317.958 350.946 316.699 349.71 315.627 348.259C314.56 346.808 313.718 345.125 313.097 343.217C312.482 341.309 312.171 339.135 312.171 336.702ZM326.14 336.702C326.14 338.74 326.348 340.626 326.761 342.365C327.173 344.098 327.749 345.605 328.494 346.887C329.239 348.163 330.126 349.168 331.153 349.891C332.181 350.619 333.316 350.98 334.552 350.98C335.789 350.98 336.918 350.608 337.951 349.868C338.979 349.123 339.871 348.112 340.622 346.836C341.372 345.554 341.96 344.047 342.377 342.308C342.801 340.575 343.01 338.706 343.01 336.702C343.01 334.68 342.812 332.783 342.417 331.01C342.016 329.243 341.452 327.702 340.718 326.398C339.978 325.093 339.092 324.066 338.041 323.315C336.997 322.564 335.834 322.191 334.552 322.191C333.316 322.191 332.181 322.564 331.153 323.315C330.126 324.066 329.239 325.093 328.494 326.398C327.749 327.702 327.173 329.243 326.761 331.01C326.348 332.783 326.14 334.68 326.14 336.702Z" fill="#0130B0"/>
<path id="Vector_17" fill-rule="evenodd" clip-rule="evenodd" d="M75.0658 291C99.3843 291 119.132 310.742 119.132 335.066C119.132 359.384 99.3843 379.132 75.0658 379.132C50.7473 379.132 31 359.384 31 335.066C31 310.742 50.7473 291 75.0658 291ZM75.0658 313.033C87.2251 313.033 97.0987 322.907 97.0987 335.066C97.0987 347.225 87.2251 357.099 75.0658 357.099C62.9066 357.099 53.0329 347.225 53.0329 335.066C53.0329 322.907 62.9066 313.033 75.0658 313.033Z" fill="#0130B0"/>
</g>
</g>
<defs>
<filter id="filter0_d" x="-6" y="0" width="988.935" height="393.132" filterUnits="userSpaceOnUse" color-interpolation-filters="sRGB">
<feFlood flood-opacity="0" result="BackgroundImageFix"/>
<feColorMatrix in="SourceAlpha" type="matrix" values="0 0 0 0 0 0 0 0 0 0 0 0 0 0 0 0 0 0 127 0"/>
<feOffset dx="4" dy="4"/>
<feGaussianBlur stdDeviation="5"/>
<feColorMatrix type="matrix" values="0 0 0 0 0 0 0 0 0 0 0 0 0 0 0 0 0 0 0.45 0"/>
<feBlend mode="normal" in2="BackgroundImageFix" result="effect1_dropShadow"/>
<feBlend mode="normal" in="SourceGraphic" in2="effect1_dropShadow" result="shape"/>
</filter>
</defs>
</svg>
