<svg width="962" height="374" viewBox="0 0 962 374" fill="none" xmlns="http://www.w3.org/2000/svg">
<path d="M328.48 164.111L301.824 139.177H387.403V255L413.825 279.935H328.48V164.111Z" fill="#2E86AB"/>
<path d="M499.957 255V166.725L464.65 139.177H551.866L643.991 209.757V164.111L611.958 139.177H703.616L675.09 164.111V279.935H643.991L531.056 191.257V255L565.427 279.935H469.093L499.957 255Z" fill="#2E86AB"/>
<path d="M786.594 255V164.111L754.561 139.177H961.96L959.622 187.839L914.027 161.698H846.686V194.073H915.43V215.789H846.686V257.413H914.027L960.791 233.485V279.935H754.561L786.594 255Z" fill="#2E86AB"/>
<path fill-rule="evenodd" clip-rule="evenodd" d="M139.004 119.152C189.961 119.152 231.303 159.308 231.268 208.766C231.233 258.227 189.833 298.38 138.876 298.38L139.004 119.152Z" fill="#2E86AB"/>
<path fill-rule="evenodd" clip-rule="evenodd" d="M233.319 110.351H138.778V337.43H134.938V101.129H233.319V110.351Z" fill="#2E86AB"/>
<path fill-rule="evenodd" clip-rule="evenodd" d="M134.937 214.268H21.4878V337.43H16.8789V209.267H134.937V214.268Z" fill="#2E86AB"/>
<path d="M291.895 337.43V321.41H231.331V337.43H291.895Z" fill="#2E86AB"/>
<path fill-rule="evenodd" clip-rule="evenodd" d="M231.406 5.17242L231.332 5.07184L281.305 0L291.895 14.9698L265.995 17.6007V337.43H231.361V5.17242H231.406Z" fill="#2E86AB"/>
<path d="M795.961 344.219H453.76V347.009H795.961V344.219Z" fill="#2E86AB"/>
<path d="M748.707 321.683L744.631 316.84H757.716V339.338L761.756 344.181H748.707V321.683Z" fill="#2E86AB"/>
<path d="M663.967 339.338V320.629H660.464L653.885 328.675L653.492 316.84H663.896L663.967 316.918V316.84H683.703L683.345 328.675L676.552 320.629H673.191V339.338L679.377 344.181H657.997L663.967 339.338Z" fill="#2E86AB"/>
<path d="M568.524 333.867C569.621 334.687 570.825 335.468 572.029 336.171C573.268 336.874 574.542 337.46 575.888 338.007C577.198 338.515 578.543 338.944 579.924 339.218C581.34 339.53 582.756 339.686 584.172 339.686C584.738 339.686 585.269 339.647 585.765 339.569C586.296 339.491 586.756 339.374 587.146 339.179C587.5 339.022 587.818 338.788 588.066 338.515C588.314 338.202 588.42 337.851 588.42 337.46C588.42 337.109 588.314 336.718 588.137 336.327C587.925 335.976 587.535 335.624 587.004 335.273C586.438 334.921 585.659 334.609 584.632 334.296C583.641 334.023 582.331 333.75 580.738 333.515C578.614 333.203 576.737 332.812 575.144 332.344C573.587 331.836 572.277 331.25 571.25 330.469C570.188 329.727 569.409 328.828 568.913 327.774C568.418 326.719 568.17 325.469 568.17 324.024C568.17 322.618 568.453 321.368 569.02 320.275C569.586 319.181 570.4 318.244 571.462 317.502C572.56 316.72 573.834 316.135 575.392 315.744C576.914 315.314 578.649 315.119 580.561 315.119C581.375 315.119 582.154 315.158 582.968 315.275C583.783 315.353 584.561 315.51 585.34 315.666C586.155 315.822 586.898 316.017 587.641 316.252C588.42 316.486 589.093 316.681 589.766 316.955L593.164 314.885H595.536V324.024C594.297 323.243 593.058 322.54 591.784 321.915C590.544 321.29 589.305 320.782 588.066 320.392C586.863 319.962 585.659 319.65 584.491 319.455C583.322 319.22 582.189 319.142 581.127 319.142C580.455 319.142 579.817 319.181 579.251 319.298C578.72 319.415 578.224 319.572 577.835 319.767C577.445 319.962 577.162 320.197 576.95 320.431C576.737 320.704 576.631 320.978 576.631 321.251C576.631 321.681 576.737 322.071 576.95 322.423C577.162 322.735 577.552 323.048 578.154 323.36C578.755 323.634 579.605 323.907 580.703 324.18C581.765 324.454 583.181 324.766 584.951 325.079C586.119 325.313 587.217 325.548 588.279 325.782C589.341 326.016 590.332 326.29 591.217 326.641C592.138 326.993 592.952 327.383 593.695 327.852C594.439 328.321 595.041 328.867 595.572 329.531C596.103 330.195 596.492 330.977 596.775 331.875C597.059 332.773 597.2 333.789 597.2 334.999C597.2 336.562 596.846 337.929 596.174 339.061C595.465 340.194 594.545 341.092 593.377 341.835C592.173 342.538 590.828 343.084 589.27 343.436C587.677 343.787 586.048 343.944 584.314 343.944C582.72 343.944 581.092 343.748 579.428 343.397C577.764 343.006 576.206 342.381 574.684 341.561L571.923 343.475H568.524V333.867Z" fill="#2E86AB"/>
<path d="M494.679 321.683L490.604 316.84H503.689V339.338L507.729 344.181H494.679V321.683Z" fill="#2E86AB"/>
<path fill-rule="evenodd" clip-rule="evenodd" d="M920.215 289.278C943.274 289.278 961.999 308.027 961.999 331.126C961.999 354.22 943.274 372.973 920.215 372.973C897.152 372.973 878.432 354.22 878.432 331.126C878.432 308.027 897.152 289.278 920.215 289.278ZM905.729 349.874L909.452 347.331C911.486 348.449 913.617 349.258 915.835 349.759C918.057 350.261 920.252 350.509 922.424 350.509C924.756 350.509 926.969 350.279 929.072 349.824C931.18 349.364 933.021 348.651 934.605 347.685C936.189 346.72 937.447 345.483 938.379 343.97C939.307 342.461 939.775 340.654 939.775 338.553C939.775 336.975 939.582 335.591 939.206 334.405C938.825 333.218 938.283 332.184 937.585 331.301C936.887 330.418 936.047 329.663 935.06 329.038C934.072 328.408 932.966 327.87 931.74 327.424C930.514 326.973 929.187 326.587 927.759 326.265C926.331 325.943 924.834 325.635 923.264 325.35C920.904 324.927 918.994 324.531 917.534 324.168C916.078 323.8 914.944 323.423 914.136 323.032C913.328 322.646 912.786 322.223 912.506 321.772C912.226 321.326 912.088 320.82 912.088 320.259C912.088 319.868 912.226 319.5 912.506 319.156C912.786 318.806 913.185 318.507 913.704 318.25C914.223 317.997 914.861 317.794 915.614 317.638C916.367 317.486 917.208 317.413 918.14 317.413C919.568 317.413 921.074 317.551 922.649 317.831C924.223 318.112 925.84 318.526 927.493 319.077C929.146 319.629 930.813 320.31 932.498 321.124C934.183 321.938 935.854 322.881 937.516 323.947V311.738H934.325L929.761 314.483C928.875 314.161 927.929 313.853 926.919 313.554C925.913 313.26 924.88 313.003 923.824 312.782C922.768 312.561 921.698 312.386 920.61 312.258C919.522 312.133 918.443 312.069 917.373 312.069C914.779 312.069 912.451 312.34 910.384 312.883C908.323 313.426 906.569 314.207 905.123 315.224C903.681 316.24 902.574 317.482 901.803 318.949C901.036 320.416 900.65 322.076 900.65 323.924C900.65 325.856 900.995 327.53 901.674 328.937C902.358 330.344 903.401 331.549 904.797 332.547C906.197 333.549 907.956 334.372 910.081 335.016C912.212 335.66 914.719 336.184 917.607 336.594C919.765 336.897 921.519 337.251 922.869 337.651C924.219 338.047 925.27 338.474 926.023 338.934C926.776 339.394 927.286 339.872 927.548 340.374C927.814 340.87 927.943 341.367 927.943 341.859C927.943 342.402 927.787 342.866 927.465 343.248C927.148 343.629 926.73 343.933 926.212 344.163C925.688 344.393 925.082 344.558 924.393 344.659C923.705 344.761 922.984 344.811 922.24 344.811C920.298 344.811 918.392 344.614 916.523 344.213C914.65 343.813 912.827 343.266 911.05 342.572C909.273 341.877 907.551 341.059 905.894 340.116C904.232 339.173 902.648 338.162 901.142 337.076V349.874H905.729Z" fill="#2E86AB"/>
<path fill-rule="evenodd" clip-rule="evenodd" d="M836.832 289.278C859.896 289.278 878.616 308.018 878.616 331.104C878.616 354.186 859.896 372.926 836.832 372.926C813.773 372.926 795.049 354.186 795.049 331.104C795.049 308.018 813.773 289.278 836.832 289.278ZM815.211 331.09C815.211 328.808 815.514 326.744 816.12 324.889C816.726 323.038 817.561 321.393 818.636 319.952C819.706 318.515 820.973 317.274 822.429 316.237C823.889 315.2 825.477 314.34 827.195 313.666C828.907 312.988 830.712 312.486 832.608 312.16C834.5 311.835 836.419 311.672 838.357 311.672C839.789 311.672 841.139 311.765 842.411 311.956C843.683 312.142 844.877 312.397 845.988 312.713C847.095 313.029 848.118 313.397 849.046 313.806C849.978 314.22 850.818 314.647 851.562 315.094L853.261 312.648H858.128V325.716L851.957 326.999C851.585 325.609 851.034 324.317 850.304 323.118C849.574 321.918 848.697 320.877 847.673 320.003C846.649 319.129 845.487 318.441 844.193 317.934C842.898 317.427 841.488 317.176 839.964 317.176C838.008 317.176 836.332 317.557 834.936 318.32C833.54 319.082 832.392 320.105 831.502 321.379C830.611 322.657 829.954 324.136 829.532 325.818C829.114 327.497 828.903 329.254 828.903 331.09C828.903 333.336 829.201 335.326 829.803 337.055C830.4 338.789 831.235 340.239 832.305 341.416C833.375 342.592 834.647 343.475 836.112 344.079C837.581 344.679 839.188 344.977 840.946 344.977C842.31 344.977 843.6 344.786 844.808 344.4C846.02 344.014 847.09 343.424 848.013 342.624C848.936 341.829 849.689 340.82 850.272 339.602C850.85 338.384 851.204 336.943 851.328 335.284H858.454C858.454 336.911 858.22 338.417 857.747 339.807C857.274 341.197 856.604 342.457 855.745 343.591C854.882 344.721 853.844 345.72 852.637 346.585C851.424 347.45 850.074 348.175 848.582 348.761C847.09 349.342 845.488 349.784 843.775 350.081C842.058 350.383 840.262 350.532 838.384 350.532C836.612 350.532 834.807 350.402 832.966 350.132C831.13 349.867 829.353 349.435 827.635 348.835C825.918 348.235 824.311 347.441 822.805 346.455C821.299 345.469 819.981 344.256 818.856 342.815C817.731 341.378 816.841 339.686 816.189 337.752C815.537 335.814 815.211 333.591 815.211 331.09Z" fill="#2E86AB"/>
<path fill-rule="evenodd" clip-rule="evenodd" d="M414.098 289.278C437.157 289.278 455.881 308.027 455.881 331.126C455.881 354.22 437.157 372.973 414.098 372.973C391.034 372.973 372.314 354.22 372.314 331.126C372.314 308.027 391.034 289.278 414.098 289.278ZM435.591 325.286V312.869H430.375L428.607 315.362C427.721 314.856 426.752 314.387 425.706 313.964C424.659 313.541 423.561 313.173 422.409 312.869C421.261 312.566 420.076 312.327 418.859 312.156C417.638 311.986 416.426 311.904 415.214 311.904C413.198 311.904 411.233 312.088 409.323 312.451C407.413 312.814 405.608 313.371 403.909 314.115C402.21 314.865 400.649 315.789 399.23 316.888C397.807 317.992 396.586 319.28 395.562 320.756C394.538 322.232 393.734 323.892 393.16 325.741C392.586 327.589 392.302 329.617 392.302 331.825C392.302 334.147 392.586 336.216 393.16 338.033C393.734 339.845 394.542 341.436 395.585 342.802C396.622 344.168 397.867 345.326 399.308 346.287C400.755 347.244 402.344 348.026 404.084 348.628C405.824 349.231 407.684 349.667 409.663 349.939C411.641 350.21 413.68 350.343 415.774 350.343C417 350.343 418.212 350.279 419.406 350.155C420.604 350.026 421.766 349.824 422.9 349.543C424.034 349.263 425.118 348.899 426.16 348.449C427.202 347.998 428.18 347.451 429.094 346.807L430.375 349.35H435.894V329.916H417.193L423.97 337.04V343.399C423.162 343.942 422.262 344.319 421.27 344.531C420.274 344.742 419.098 344.848 417.73 344.848C416.178 344.848 414.699 344.554 413.294 343.96C411.889 343.367 410.659 342.489 409.603 341.325C408.547 340.162 407.707 338.723 407.077 336.998C406.448 335.278 406.132 333.292 406.132 331.034C406.132 328.675 406.421 326.638 406.995 324.918C407.569 323.193 408.345 321.772 409.323 320.655C410.301 319.537 411.444 318.705 412.748 318.162C414.052 317.62 415.425 317.348 416.867 317.348C418.189 317.348 419.47 317.523 420.724 317.868C421.973 318.217 423.153 318.728 424.264 319.408C425.37 320.089 426.39 320.917 427.313 321.901C428.235 322.885 429.025 324.012 429.677 325.286H435.591Z" fill="#2E86AB"/>
<path fill-rule="evenodd" clip-rule="evenodd" d="M330.974 289.278C354.181 289.278 373.016 308.036 373.016 331.135C373.016 339.773 370.387 347.795 365.88 354.466C358.324 365.637 345.509 372.991 330.974 372.991C307.772 372.991 288.932 354.24 288.932 331.135C288.932 308.036 307.772 289.278 330.974 289.278ZM309.936 331.124C309.936 328.738 310.255 326.59 310.894 324.69C311.528 322.785 312.391 321.106 313.473 319.653C314.561 318.2 315.833 316.962 317.296 315.928C318.759 314.899 320.312 314.062 321.954 313.412C323.597 312.767 325.29 312.287 327.039 311.987C328.782 311.682 330.486 311.535 332.157 311.535C333.978 311.535 335.8 311.682 337.616 311.987C339.433 312.287 341.165 312.767 342.807 313.412C344.45 314.062 345.98 314.899 347.393 315.928C348.805 316.962 350.038 318.2 351.087 319.653C352.129 321.106 352.948 322.785 353.536 324.69C354.125 326.59 354.422 328.738 354.422 331.124C354.422 333.475 354.114 335.595 353.503 337.478C352.886 339.366 352.045 341.034 350.98 342.487C349.909 343.939 348.654 345.183 347.219 346.223C345.778 347.263 344.237 348.117 342.594 348.796C340.952 349.468 339.236 349.96 337.448 350.271C335.666 350.582 333.9 350.74 332.157 350.74C330.408 350.74 328.647 350.593 326.87 350.299C325.093 350.005 323.384 349.536 321.741 348.897C320.099 348.258 318.557 347.427 317.117 346.404C315.682 345.387 314.432 344.149 313.366 342.696C312.307 341.243 311.472 339.558 310.855 337.647C310.244 335.737 309.936 333.56 309.936 331.124ZM323.804 331.124C323.804 333.164 324.012 335.053 324.421 336.794C324.83 338.529 325.402 340.039 326.142 341.322C326.882 342.6 327.762 343.606 328.782 344.329C329.802 345.059 330.929 345.421 332.157 345.421C333.384 345.421 334.505 345.047 335.531 344.307C336.551 343.561 337.437 342.549 338.183 341.271C338.928 339.988 339.511 338.478 339.926 336.737C340.346 335.002 340.554 333.13 340.554 331.124C340.554 329.1 340.358 327.2 339.965 325.425C339.567 323.656 339.007 322.112 338.278 320.806C337.544 319.501 336.663 318.472 335.621 317.72C334.584 316.968 333.429 316.595 332.157 316.595C330.929 316.595 329.802 316.968 328.782 317.72C327.762 318.472 326.882 319.501 326.142 320.806C325.402 322.112 324.83 323.656 324.421 325.425C324.012 327.2 323.804 329.1 323.804 331.124Z" fill="#2E86AB"/>
<path fill-rule="evenodd" clip-rule="evenodd" d="M74.5278 285.364C98.6722 285.364 118.278 305.131 118.278 329.486C118.278 353.835 98.6722 373.608 74.5278 373.608C50.3833 373.608 30.7773 353.835 30.7773 329.486C30.7773 305.131 50.3833 285.364 74.5278 285.364ZM74.5278 307.425C86.6 307.425 96.403 317.311 96.403 329.486C96.403 341.661 86.6 351.547 74.5278 351.547C62.4555 351.547 52.6525 341.661 52.6525 329.486C52.6525 317.311 62.4555 307.425 74.5278 307.425Z" fill="#2E86AB"/>
</svg>
